<svg width="8" height="8" viewBox="0 0 8 8" fill="none" xmlns="http://www.w3.org/2000/svg">
<path d="M0.666667 0.666666C0.1 1.23333 0 1.76667 0 4C0 6.23333 0.1 6.76667 0.666667 7.33333C1.23333 7.9 1.76667 8 4 8C7.63333 8 8 7.63333 8 4C8 1.76667 7.9 1.23333 7.33333 0.666666C6.76667 0.0999996 6.23333 -4.17233e-07 4 -4.17233e-07C1.76667 -4.17233e-07 1.23333 0.0999996 0.666667 0.666666ZM6.93333 1.06667C7.46667 1.6 7.46667 6.4 6.93333 6.93333C6.7 7.16667 5.53333 7.33333 4 7.33333C2.46667 7.33333 1.3 7.16667 1.06667 6.93333C0.533333 6.4 0.533333 1.6 1.06667 1.06667C1.6 0.533333 6.4 0.533333 6.93333 1.06667Z" fill="#262626"/>
<path d="M4.43331 3.73333C3.56665 4.6 3.29998 4.7 2.86665 4.36667C2.13331 3.73333 1.93331 4.5 2.66665 5.16667C3.33331 5.76667 3.39998 5.76667 4.66665 4.5C5.93331 3.23333 6.29998 2.66667 5.73331 2.66667C5.59998 2.66667 4.99998 3.13333 4.43331 3.73333Z" fill="#262626"/>
</svg>
