<svg width="24" height="24" viewBox="0 0 24 24" fill="none" xmlns="http://www.w3.org/2000/svg">
<g clip-path="url(#clip0_1_2)">
<path d="M12 20.55C11.7 20.55 4.721 20.544 2.885 20.05C2.3132 19.8966 1.79182 19.5954 1.3732 19.1768C0.954575 18.7582 0.653433 18.2368 0.5 17.665C0.153172 15.7969 -0.0142561 13.9 -1.48546e-07 12C-0.0142282 10.0997 0.1532 8.20242 0.5 6.334C0.65328 5.76202 0.954354 5.24043 1.37299 4.82162C1.79162 4.40281 2.31308 4.10152 2.885 3.948C4.721 3.456 11.704 3.448 12 3.448C12.296 3.448 19.279 3.454 21.115 3.948C21.6865 4.10235 22.2075 4.40392 22.626 4.8226C23.0445 5.24129 23.3459 5.76243 23.5 6.334C23.8459 8.20254 24.0133 10.0998 24 12C24.0133 13.9002 23.8459 15.7975 23.5 17.666C23.3456 18.2379 23.0438 18.7593 22.6248 19.178C22.2057 19.5967 21.6841 19.8981 21.112 20.052C19.279 20.544 12.3 20.55 12 20.55ZM12 4.45C11.928 4.45 4.854 4.456 3.143 4.914C2.74051 5.02211 2.37352 5.23414 2.07883 5.52883C1.78414 5.82352 1.57211 6.19051 1.464 6.593C1.1439 8.3773 0.98858 10.1873 1 12C0.98858 13.8127 1.1439 15.6227 1.464 17.407C1.57211 17.8095 1.78414 18.1765 2.07883 18.4712C2.37352 18.7659 2.74051 18.9779 3.143 19.086C4.854 19.544 11.928 19.55 12 19.55C12.072 19.55 19.146 19.544 20.857 19.086C21.2595 18.9779 21.6265 18.7659 21.9212 18.4712C22.2159 18.1765 22.4279 17.8095 22.536 17.407C22.8556 15.6226 23.0109 13.8127 23 12C23.0109 10.1873 22.8556 8.37737 22.536 6.593C22.4279 6.19051 22.2159 5.82352 21.9212 5.52883C21.6265 5.23414 21.2595 5.02211 20.857 4.914C19.146 4.456 12.071 4.45 12 4.45ZM9.7 15.95C9.56739 15.95 9.44022 15.8973 9.34645 15.8036C9.25268 15.7098 9.2 15.5826 9.2 15.45V8.55C9.2 8.46223 9.22311 8.37601 9.26699 8.3C9.31088 8.224 9.374 8.16088 9.45001 8.117C9.52601 8.07311 9.61224 8.05001 9.7 8.05001C9.78777 8.05001 9.87399 8.07312 9.95 8.117L15.925 11.567C16.001 11.6109 16.0641 11.674 16.108 11.75C16.1519 11.826 16.175 11.9122 16.175 12C16.175 12.0878 16.1519 12.174 16.108 12.25C16.0641 12.326 16.001 12.3891 15.925 12.433L9.95 15.883C9.87399 15.9269 9.78777 15.95 9.7 15.95ZM10.2 9.416V14.584L14.675 12L10.2 9.416Z" fill="black"/>
</g>
<defs>
<clipPath id="clip0_1_2">
<rect width="24" height="24" fill="white"/>
</clipPath>
</defs>
</svg>
